 You Dont Mess With The Zohan 2008 720p BRRip H264 AAC-Rx(Phoenix-RG).mp4
      Format : MPEG-4 / AVC
      File size : 1.72 GiB
      Duration : 1h 56mn
      Bit rate : 1 800 Kbps
      Width : 1 280 pixels
      Height : 688 pixels
      Display aspect ratio : 1.860
      Frame rate : 23.976 fps
      Resolution : 24 bits
      Colorimetry : 4:2:0
      Scan type : Progressive
      Bits/(Pixel*Frame) : 0.085
      Stream size : 1.47 GiB (85%)
      
     
AUDIO:
      Format : AAC / LC
      Duration : 1h 56mn
      Bit rate mode : Variable
      Bit rate : 302 Kbps
      Channel(s) : 6 channels
      Channel positions : Front: L C R, Rear: L R, LFE
      Sampling rate : 48.0 KHz
      Resolution : 16 bits
      Stream size : 253 MiB (14%)

SCREEN:
 
http://img269.imageshack.us/img269/4677/vlcsnap2010091213h30m59.jpg
 
http://img704.imageshack.us/img704/5384/vlcsnap2010091213h31m36.jpg
 
http://img137.imageshack.us/img137/2084/vlcsnap2010091213h38m15.jpg